<svg width="60" height="60" viewBox="0 0 60 60" fill="none" xmlns="http://www.w3.org/2000/svg">
<path d="M30 55C16.193 55 5 43.807 5 30C5 16.1929 16.193 5 30 5C43.8071 5 55 16.1929 55 30C55 34.5535 53.7826 38.8228 51.6554 42.5L53.75 53.75L42.5 51.6555C38.8228 53.7825 34.5535 55 30 55Z" fill="white" stroke="white" stroke-width="3.75" stroke-linecap="round" stroke-linejoin="round"/>
<path d="M42.5 31.25C43.1903 31.25 43.75 30.6903 43.75 30C43.75 29.3097 43.1903 28.75 42.5 28.75C41.8097 28.75 41.25 29.3097 41.25 30C41.25 30.6903 41.8097 31.25 42.5 31.25Z" fill="black" stroke="black" stroke-width="3.75" stroke-linecap="round" stroke-linejoin="round"/>
<path d="M30 31.25C30.6903 31.25 31.25 30.6903 31.25 30C31.25 29.3097 30.6903 28.75 30 28.75C29.3097 28.75 28.75 29.3097 28.75 30C28.75 30.6903 29.3097 31.25 30 31.25Z" fill="black" stroke="black" stroke-width="3.75" stroke-linecap="round" stroke-linejoin="round"/>
<path d="M17.5 31.25C18.1904 31.25 18.75 30.6903 18.75 30C18.75 29.3097 18.1904 28.75 17.5 28.75C16.8097 28.75 16.25 29.3097 16.25 30C16.25 30.6903 16.8097 31.25 17.5 31.25Z" fill="black" stroke="black" stroke-width="3.75" stroke-linecap="round" stroke-linejoin="round"/>
</svg>
