<svg width="100%" height="100%" viewBox="0 0 30 30" fill="none" xmlns="http://www.w3.org/2000/svg">
<path d="M11.25 25.9375H7.5C7.06655 25.956 6.63371 25.8888 6.22626 25.7398C5.81881 25.5908 5.44475 25.3629 5.12547 25.0691C4.80619 24.7754 4.54796 24.4215 4.36558 24.0279C4.18318 23.6343 4.08019 23.2085 4.0625 22.775V7.22505C4.08019 6.79158 4.18318 6.36583 4.36558 5.97219C4.54796 5.57855 4.80619 5.22474 5.12547 4.931C5.44475 4.63726 5.81881 4.40936 6.22626 4.26035C6.63371 4.11133 7.06655 4.04411 7.5 4.06255H11.25C11.4986 4.06255 11.7371 4.16133 11.9129 4.33714C12.0887 4.51296 12.1875 4.75141 12.1875 5.00005C12.1875 5.2487 12.0887 5.48715 11.9129 5.66296C11.7371 5.83879 11.4986 5.93755 11.25 5.93755H7.5C7.12884 5.90528 6.7595 6.01711 6.46859 6.24984C6.17766 6.48258 5.98749 6.81836 5.9375 7.18755V22.775C5.98749 23.1443 6.17766 23.48 6.46859 23.7128C6.7595 23.9455 7.12884 24.0574 7.5 24.025H11.25C11.4986 24.025 11.7371 24.1239 11.9129 24.2996C12.0887 24.4755 12.1875 24.7139 12.1875 24.9625C12.1875 25.2113 12.0887 25.4496 11.9129 25.6255C11.7371 25.8013 11.4986 25.9 11.25 25.9V25.9375Z" fill="currentColor"/>
<path d="M20 20.9374C19.8768 20.9381 19.7547 20.9141 19.641 20.8668C19.5272 20.8196 19.424 20.7501 19.3375 20.6624C19.162 20.4867 19.0633 20.2484 19.0633 19.9999C19.0633 19.7516 19.162 19.5132 19.3375 19.3374L23.675 14.9999L19.3375 10.6624C19.2453 10.5766 19.1715 10.4731 19.1202 10.3581C19.069 10.2431 19.0415 10.119 19.0392 9.9931C19.037 9.86722 19.0602 9.74218 19.1073 9.62545C19.1545 9.50871 19.2246 9.40267 19.3137 9.31365C19.4027 9.22462 19.5087 9.15445 19.6255 9.1073C19.7422 9.06015 19.8672 9.03698 19.9931 9.03921C20.119 9.04142 20.2431 9.06898 20.3581 9.12022C20.4731 9.17146 20.5766 9.24533 20.6625 9.33745L25.6625 14.3374C25.8381 14.5132 25.9366 14.7516 25.9366 14.9999C25.9366 15.2484 25.8381 15.4867 25.6625 15.6624L20.6625 20.6624C20.576 20.7501 20.4727 20.8196 20.359 20.8668C20.2452 20.9141 20.1231 20.9381 20 20.9374Z" fill="currentColor"/>
<path d="M25 15.9375H11.25C11.0014 15.9375 10.7629 15.8388 10.5871 15.6629C10.4113 15.4871 10.3125 15.2486 10.3125 15C10.3125 14.7514 10.4113 14.5129 10.5871 14.3371C10.7629 14.1612 11.0014 14.0625 11.25 14.0625H25C25.2486 14.0625 25.4871 14.1612 25.6629 14.3371C25.8387 14.5129 25.9375 14.7514 25.9375 15C25.9375 15.2486 25.8387 15.4871 25.6629 15.6629C25.4871 15.8388 25.2486 15.9375 25 15.9375Z" fill="currentColor"/>
</svg>
