<?xml version="1.0" standalone="no"?>
<!DOCTYPE svg PUBLIC "-//W3C//DTD SVG 20010904//EN"
 "http://www.w3.org/TR/2001/REC-SVG-20010904/DTD/svg10.dtd">
<svg version="1.0" xmlns="http://www.w3.org/2000/svg"
 width="512.000000pt" height="512.000000pt" viewBox="0 0 512.000000 512.000000"
 preserveAspectRatio="xMidYMid meet">

<g transform="translate(0.000000,512.000000) scale(0.100000,-0.100000)"
fill="#000000" stroke="none">
<path d="M2255 4773 c-507 -68 -985 -319 -1345 -708 -404 -436 -628 -1062
-582 -1628 70 -858 500 -1526 1207 -1873 209 -102 415 -168 655 -209 129 -22
467 -31 611 -16 776 80 1434 530 1756 1201 175 364 265 821 235 1189 -88 1059
-896 1910 -1945 2046 -148 19 -443 18 -592 -2z m-175 -1008 c123 -64 1772
-1023 1794 -1043 71 -67 89 -192 40 -283 -22 -39 -42 -59 -98 -93 -85 -53
-1667 -966 -1728 -998 -113 -59 -264 -4 -319 117 -18 38 -19 93 -19 1088 0
1156 -4 1086 63 1155 73 76 185 100 267 57z"/>
</g>
</svg>
