<svg width="18" height="18" viewBox="0 0 18 18" fill="none" xmlns="http://www.w3.org/2000/svg">
<rect width="18" height="18" rx="4" fill="url(#paint0_linear_530_255)"/>
<g filter="url(#filter0_d_530_255)">
<path d="M3.93198 9.69065L9 14.5L14.068 9.69065C14.6647 9.06549 15 8.2176 15 7.3335V7.18398C15 5.42552 13.6393 4 11.9608 4C11.0374 4 10.1642 4.43968 9.58748 5.19496L9 5.96429L8.41252 5.19496C7.83575 4.43968 6.96254 4 6.03926 4C4.36073 4 3 5.42552 3 7.18398V7.3335C3 8.2176 3.33524 9.06549 3.93198 9.69065Z" fill="white"/>
</g>
<defs>
<filter id="filter0_d_530_255" x="2.3" y="4" width="13.4" height="12.2" filterUnits="userSpaceOnUse" color-interpolation-filters="sRGB">
<feFlood flood-opacity="0" result="BackgroundImageFix"/>
<feColorMatrix in="SourceAlpha" type="matrix" values="0 0 0 0 0 0 0 0 0 0 0 0 0 0 0 0 0 0 127 0" result="hardAlpha"/>
<feOffset dy="1"/>
<feGaussianBlur stdDeviation="0.35"/>
<feComposite in2="hardAlpha" operator="out"/>
<feColorMatrix type="matrix" values="0 0 0 0 0 0 0 0 0 0 0 0 0 0 0 0 0 0 0.4 0"/>
<feBlend mode="normal" in2="BackgroundImageFix" result="effect1_dropShadow_530_255"/>
<feBlend mode="normal" in="SourceGraphic" in2="effect1_dropShadow_530_255" result="shape"/>
</filter>
<linearGradient id="paint0_linear_530_255" x1="9" y1="0" x2="9" y2="18" gradientUnits="userSpaceOnUse">
<stop stop-color="#8A2797"/>
<stop offset="1" stop-color="#9230CB"/>
</linearGradient>
</defs>
</svg>
