<svg width="100%" height="100%" viewBox="0 0 17 17" fill="none" xmlns="http://www.w3.org/2000/svg">
<path d="M16.9069 8.82774C16.9654 8.73466 17 8.62095 17 8.49944C17 8.37793 16.9654 8.26479 16.9052 8.16892L16.9069 8.1717C16.8902 8.14328 16.874 8.11931 16.8562 8.09646L16.8573 8.09813C16.8016 8.02177 16.733 7.95823 16.6533 7.91085L16.65 7.90918C16.636 7.90082 16.6293 7.8841 16.6143 7.87685L1.00774 0.0735738C0.916885 0.0273115 0.809869 0 0.696721 0C0.311574 0 0 0.312131 0 0.696721C0 0.795934 0.0206229 0.890131 0.0579672 0.97541L0.0562951 0.970951L3.28295 8.5L0.0562951 16.029C0.020623 16.1099 0 16.2041 0 16.3033C0 16.6879 0.312131 17 0.696721 17C0.697279 17 0.698393 17 0.698951 17C0.812098 17 0.918557 16.9727 1.01275 16.9242L1.00885 16.9259L16.6154 9.12315C16.6305 9.1159 16.6366 9.09918 16.6511 9.09082C16.7336 9.04177 16.8027 8.97823 16.8568 8.90354L16.8579 8.90131C16.8746 8.88013 16.8913 8.85561 16.9058 8.83052L16.9069 8.82774ZM2.08626 2.17043L13.352 7.80272H4.50082L2.08626 2.17043ZM4.50082 9.19616H13.352L2.08626 14.8285L4.50082 9.19616Z" fill="currentColor"/>
</svg>
