<svg width="100%" height="100%" viewBox="0 0 21 21" fill="none" xmlns="http://www.w3.org/2000/svg">
<path d="M18.151 3.03298C16.3119 1.47738 13.6824 0.568598 10.467 0.569336C7.41591 0.569336 4.81072 1.42989 2.94767 2.9651C2.01653 3.73152 1.27596 4.66692 0.771383 5.7307C0.266152 6.7942 -0.000777595 7.98336 1.70148e-06 9.24586C-0.000777595 10.7722 0.318611 12.182 0.96432 13.4121C1.57914 14.5878 2.49408 15.5876 3.65901 16.3695C3.38359 17.5289 2.99632 19.186 2.99632 19.1868C2.9786 19.2612 2.96933 19.3388 2.97011 19.4175C2.96937 19.7288 3.1144 20.0285 3.36661 20.2217L3.36816 20.2228V20.2232C3.54871 20.3606 3.76622 20.4308 3.98381 20.4308C4.14738 20.4308 4.3132 20.391 4.46287 20.3104L4.47755 20.3027L4.4922 20.2939C4.49298 20.2935 4.70052 20.1704 5.0199 19.9814C5.49819 19.6983 6.2272 19.2675 6.87754 18.8845C7.20235 18.6931 7.50783 18.5138 7.75159 18.3714C7.99456 18.2295 8.18127 18.1211 8.25075 18.0829L8.25382 18.081L8.25842 18.0783C9.16486 17.5645 9.88694 17.4781 10.4671 17.475C12.8748 17.4715 15.4387 17.0048 17.4861 15.7269C18.5074 15.087 19.3962 14.2334 20.0211 13.1407C20.6475 12.0487 21.0008 10.7268 21 9.1966C21.0046 6.78997 19.9917 4.58477 18.151 3.03298ZM18.6502 12.3556C18.2883 12.9862 17.8147 13.517 17.2461 13.9668C16.3937 14.6406 15.3237 15.127 14.1503 15.4406C12.9773 15.755 11.7036 15.8954 10.467 15.895C9.70791 15.8919 8.6472 16.035 7.48306 16.7023V16.7019C7.35423 16.7737 7.06728 16.9407 6.68924 17.1621C6.14693 17.4803 5.43334 17.9011 4.83779 18.2537C4.98283 17.6346 5.15181 16.9175 5.27752 16.391V16.3903C5.29836 16.3023 5.31378 16.207 5.31378 16.0986C5.31534 15.9459 5.27596 15.7596 5.18807 15.6046C5.12244 15.4884 5.03836 15.397 4.96511 15.3346C4.85248 15.2408 4.7684 15.2003 4.72131 15.1745L4.67349 15.1502L4.66807 15.1471C3.63665 14.4825 2.87753 13.6571 2.36381 12.6785C1.85001 11.6983 1.58001 10.5546 1.58001 9.24586C1.58001 8.20403 1.79677 7.25554 2.19869 6.40812C2.80194 5.13909 3.82565 4.08643 5.22506 3.33621C6.62296 2.58751 8.39959 2.14934 10.4671 2.14934C13.3908 2.15012 15.6323 2.97092 17.1305 4.23917C18.6263 5.51168 19.4147 7.22507 19.4201 9.19648C19.4185 10.4887 19.13 11.5143 18.6502 12.3556Z" fill="currentColor"/>
<path d="M5.53938 8.08691C4.87173 8.08691 4.33057 8.62848 4.33057 9.29618C4.33057 9.96383 4.87173 10.505 5.53938 10.505C6.20744 10.505 6.7486 9.96387 6.7486 9.29618C6.74864 8.62848 6.20748 8.08691 5.53938 8.08691Z" fill="currentColor"/>
<path d="M10.2549 8.08691C9.58715 8.08691 9.04599 8.62848 9.04599 9.29618C9.04599 9.96383 9.58715 10.505 10.2549 10.505C10.9229 10.505 11.4641 9.96387 11.4641 9.29618C11.4641 8.62848 10.9229 8.08691 10.2549 8.08691Z" fill="currentColor"/>
<path d="M14.9707 8.08691C14.303 8.08691 13.7615 8.62848 13.7615 9.29618C13.7615 9.96383 14.303 10.505 14.9707 10.505C15.6388 10.505 16.18 9.96387 16.18 9.29618C16.18 8.62848 15.6388 8.08691 14.9707 8.08691Z" fill="currentColor"/>
</svg>
