<svg width="100%" height="100%" viewBox="0 0 30 30" fill="none" xmlns="http://www.w3.org/2000/svg">
<path d="M15 9.70647C13.8955 9.70647 13.0001 8.81105 13.0001 7.7065C13.0001 6.60196 13.8955 5.70654 15 5.70654C16.1046 5.70654 17 6.60196 17 7.7065C17 8.81105 16.1046 9.70647 15 9.70647Z" fill="currentColor"/>
<path d="M15 16.9999C13.8955 16.9999 13.0001 16.1045 13.0001 15C13.0001 13.8954 13.8955 13 15 13C16.1046 13 17 13.8954 17 15C17 16.1045 16.1046 16.9999 15 16.9999Z" fill="currentColor"/>
<path d="M15 24.2934C13.8955 24.2934 13.0001 23.398 13.0001 22.2934C13.0001 21.1889 13.8955 20.2935 15 20.2935C16.1046 20.2935 17 21.1889 17 22.2934C17 23.398 16.1046 24.2934 15 24.2934Z" fill="currentColor"/>
</svg>
