<svg width="41" height="40" viewBox="0 0 41 40" fill="none" xmlns="http://www.w3.org/2000/svg">
<path d="M25.8124 24.6473L26.3227 23.9509C26.0648 23.7531 25.72 23.7214 25.4317 23.8689C25.1436 24.0163 24.9616 24.3177 24.9616 24.6473H25.8124ZM25.8124 15.353H24.9616C24.9616 15.6826 25.1436 15.984 25.4317 16.1314C25.72 16.279 26.0648 16.2472 26.3227 16.0494L25.8124 15.353ZM11.9058 15.0153C11.9058 13.7592 12.9011 12.7409 14.1289 12.7409V11C11.9613 11 10.2041 12.7977 10.2041 15.0153H11.9058ZM11.9058 24.9847V15.0153H10.2041V24.9847H11.9058ZM14.1289 27.2591C12.9011 27.2591 11.9058 26.2408 11.9058 24.9847H10.2041C10.2041 27.2023 11.9613 29 14.1289 29V27.2591ZM22.7384 27.2591H14.1289V29H22.7384V27.2591ZM24.9616 24.9847C24.9616 26.2408 23.9662 27.2591 22.7384 27.2591V29C24.906 29 26.6632 27.2023 26.6632 24.9847H24.9616ZM24.9616 24.6473V24.9847H26.6632V24.6473H24.9616ZM25.3021 25.3439L27.3841 26.9406L28.4048 25.5475L26.3227 23.9509L25.3021 25.3439ZM27.3841 26.9406C28.9583 28.1478 31.2041 26.9987 31.2041 24.9859H29.5024C29.5024 25.5642 28.8571 25.8945 28.4048 25.5475L27.3841 26.9406ZM31.2041 24.9859V15.0145H29.5024V24.9859H31.2041ZM31.2041 15.0145C31.2041 13.0017 28.9583 11.8526 27.3841 13.0598L28.4048 14.4528C28.8571 14.1058 29.5024 14.4361 29.5024 15.0145H31.2041ZM27.3841 13.0598L25.3021 14.6565L26.3227 16.0494L28.4048 14.4528L27.3841 13.0598ZM24.9616 15.0153V15.353H26.6632V15.0153H24.9616ZM22.7384 12.7409C23.9662 12.7409 24.9616 13.7592 24.9616 15.0153H26.6632C26.6632 12.7977 24.906 11 22.7384 11V12.7409ZM14.1289 12.7409H22.7384V11H14.1289V12.7409Z" fill="#DFE2EA"/>
</svg>
