<svg width="28" height="28" viewBox="0 0 28 28" fill="none" xmlns="http://www.w3.org/2000/svg" class="live_popup_install_icon_download__mMeRW"><g filter="url(#filter0_di_404_9868)"><circle cx="14" cy="14" r="11" fill="url(#paint0_linear_404_9868)"></circle></g><path fill-rule="evenodd" clip-rule="evenodd" d="M9 13.5C9.27614 13.5 9.5 13.7239 9.5 14V16C9.5 17.3807 10.6193 18.5 12 18.5H16C17.3807 18.5 18.5 17.3807 18.5 16V14C18.5 13.7239 18.7239 13.5 19 13.5C19.2761 13.5 19.5 13.7239 19.5 14V16C19.5 17.933 17.933 19.5 16 19.5H12C10.067 19.5 8.5 17.933 8.5 16V14C8.5 13.7239 8.72386 13.5 9 13.5Z" fill="#2E3033"></path><path fill-rule="evenodd" clip-rule="evenodd" d="M14 9.5C14.2761 9.5 14.5 9.72386 14.5 10L14.5 16L13.5 16L13.5 10C13.5 9.72386 13.7239 9.5 14 9.5Z" fill="#2E3033"></path><path fill-rule="evenodd" clip-rule="evenodd" d="M11.1464 13.6464C11.3417 13.4512 11.6583 13.4512 11.8536 13.6464L14 15.7929L16.1464 13.6464C16.3417 13.4512 16.6583 13.4512 16.8536 13.6464C17.0488 13.8417 17.0488 14.1583 16.8536 14.3536L14.3536 16.8536C14.1583 17.0488 13.8417 17.0488 13.6464 16.8536L11.1464 14.3536C10.9512 14.1583 10.9512 13.8417 11.1464 13.6464Z" fill="#2E3033"></path><defs><filter id="filter0_di_404_9868" x="1" y="2" width="26" height="26" filterUnits="userSpaceOnUse" color-interpolation-filters="sRGB"><feFlood flood-opacity="0" result="BackgroundImageFix"></feFlood><feColorMatrix in="SourceAlpha" type="matrix" values="0 0 0 0 0 0 0 0 0 0 0 0 0 0 0 0 0 0 127 0" result="hardAlpha"></feColorMatrix><feOffset dy="1"></feOffset><feGaussianBlur stdDeviation="1"></feGaussianBlur><feComposite in2="hardAlpha" operator="out"></feComposite><feColorMatrix type="matrix" values="0 0 0 0 0 0 0 0 0 0 0 0 0 0 0 0 0 0 0.25 0"></feColorMatrix><feBlend mode="normal" in2="BackgroundImageFix" result="effect1_dropShadow_404_9868"></feBlend><feBlend mode="normal" in="SourceGraphic" in2="effect1_dropShadow_404_9868" result="shape"></feBlend><feColorMatrix in="SourceAlpha" type="matrix" values="0 0 0 0 0 0 0 0 0 0 0 0 0 0 0 0 0 0 127 0" result="hardAlpha"></feColorMatrix><feOffset dy="0.5"></feOffset><feComposite in2="hardAlpha" operator="arithmetic" k2="-1" k3="1"></feComposite><feColorMatrix type="matrix" values="0 0 0 0 1 0 0 0 0 1 0 0 0 0 1 0 0 0 0.2 0"></feColorMatrix><feBlend mode="normal" in2="shape" result="effect2_innerShadow_404_9868"></feBlend></filter><linearGradient id="paint0_linear_404_9868" x1="8.73913" y1="2.52174" x2="18.7826" y2="25" gradientUnits="userSpaceOnUse"><stop stop-color="white"></stop><stop offset="1" stop-color="#F5F5F5"></stop></linearGradient></defs></svg>